<svg width="323" height="127" viewBox="0 0 323 127" fill="none" xmlns="http://www.w3.org/2000/svg">
<path d="M57.261 71H52.536V39.5H57.198V41.705C60.348 39.815 63.414 38.87 66.396 38.87C70.302 38.87 73.032 39.941 74.586 42.083C75.972 41.243 77.757 40.508 79.941 39.878C82.167 39.206 84.12 38.87 85.8 38.87C90 38.87 92.814 40.004 94.242 42.272C95.712 44.498 96.447 48.53 96.447 54.368V71H91.722V54.494C91.722 50.126 91.302 47.144 90.462 45.548C89.622 43.91 87.837 43.091 85.107 43.091C83.721 43.091 82.293 43.301 80.823 43.721C79.353 44.099 78.219 44.477 77.421 44.855L76.224 45.422C76.77 46.808 77.043 49.874 77.043 54.62V71H72.318V54.746C72.318 50.21 71.898 47.144 71.058 45.548C70.26 43.91 68.475 43.091 65.703 43.091C64.359 43.091 62.973 43.301 61.545 43.721C60.159 44.099 59.088 44.477 58.332 44.855L57.261 45.422V71ZM117.8 71V39.5H122.525V71H117.8ZM117.8 32.381V26.9H122.525V32.381H117.8ZM142.795 55.187C142.795 49.433 143.824 45.275 145.882 42.713C147.94 40.151 151.405 38.87 156.277 38.87C161.191 38.87 164.656 40.151 166.672 42.713C168.73 45.275 169.759 49.433 169.759 55.187C169.759 60.941 168.793 65.12 166.861 67.724C164.929 70.328 161.401 71.63 156.277 71.63C151.153 71.63 147.625 70.328 145.693 67.724C143.761 65.12 142.795 60.941 142.795 55.187ZM147.646 55.124C147.646 59.702 148.192 62.915 149.284 64.763C150.418 66.611 152.749 67.535 156.277 67.535C159.847 67.535 162.178 66.632 163.27 64.826C164.362 62.978 164.908 59.744 164.908 55.124C164.908 50.504 164.299 47.333 163.081 45.611C161.863 43.847 159.595 42.965 156.277 42.965C153.001 42.965 150.733 43.847 149.473 45.611C148.255 47.333 147.646 50.504 147.646 55.124ZM190.443 71V25.766H195.168V71H190.443ZM217.625 71V25.766H222.35V71H217.625ZM243.042 55.187C243.042 49.433 244.071 45.275 246.129 42.713C248.187 40.151 251.652 38.87 256.524 38.87C261.438 38.87 264.903 40.151 266.919 42.713C268.977 45.275 270.006 49.433 270.006 55.187C270.006 60.941 269.04 65.12 267.108 67.724C265.176 70.328 261.648 71.63 256.524 71.63C251.4 71.63 247.872 70.328 245.94 67.724C244.008 65.12 243.042 60.941 243.042 55.187ZM247.893 55.124C247.893 59.702 248.439 62.915 249.531 64.763C250.665 66.611 252.996 67.535 256.524 67.535C260.094 67.535 262.425 66.632 263.517 64.826C264.609 62.978 265.155 59.744 265.155 55.124C265.155 50.504 264.546 47.333 263.328 45.611C262.11 43.847 259.842 42.965 256.524 42.965C253.248 42.965 250.98 43.847 249.72 45.611C248.502 47.333 247.893 50.504 247.893 55.124Z" fill="#F6F6F6"/>
<path d="M128.832 121V113.818H133.998V121H128.832ZM179.536 75.766V121H174.874V118.858C171.64 120.706 168.448 121.63 165.298 121.63C163.618 121.63 162.148 121.42 160.888 121C159.628 120.58 158.452 119.824 157.36 118.732C155.092 116.464 153.958 112.285 153.958 106.195C153.958 100.063 154.966 95.653 156.982 92.965C159.04 90.235 162.421 88.87 167.125 88.87C169.561 88.87 172.144 89.143 174.874 89.689V75.766H179.536ZM161.014 115.33C161.686 116.128 162.4 116.674 163.156 116.968C163.912 117.262 164.878 117.409 166.054 117.409C167.272 117.409 168.616 117.22 170.086 116.842C171.598 116.422 172.774 116.023 173.614 115.645L174.874 115.078V93.721C172.186 93.217 169.687 92.965 167.377 92.965C164.185 92.965 161.959 93.994 160.699 96.052C159.439 98.068 158.809 101.218 158.809 105.502C158.809 110.374 159.544 113.65 161.014 115.33ZM222.71 117.094L224.537 116.905L224.663 120.622C219.875 121.294 215.78 121.63 212.378 121.63C207.842 121.63 204.629 120.328 202.739 117.724C200.849 115.078 199.904 110.983 199.904 105.439C199.904 94.393 204.293 88.87 213.071 88.87C217.313 88.87 220.484 90.067 222.584 92.461C224.684 94.813 225.734 98.53 225.734 103.612L225.482 107.203H204.692C204.692 110.689 205.322 113.272 206.582 114.952C207.842 116.632 210.026 117.472 213.134 117.472C216.284 117.472 219.476 117.346 222.71 117.094ZM221.009 103.423C221.009 99.559 220.379 96.829 219.119 95.233C217.901 93.637 215.885 92.839 213.071 92.839C210.299 92.839 208.199 93.679 206.771 95.359C205.385 97.039 204.671 99.727 204.629 103.423H221.009ZM242.244 89.5H247.284L254.655 116.905H256.986L264.609 89.5H269.46L260.577 121H251.127L242.244 89.5Z" fill="#F6F6F6"/>
<path d="M1.00766 67.2682L28.875 24.5449C30.2185 22.485 32.398 22.485 33.7416 24.5449L36.9922 29.5286C38.3343 31.5863 38.3357 34.9191 36.9979 36.9812L14.9119 70.9989L36.9965 105.019C38.3357 107.081 38.3328 110.414 36.9907 112.471L33.7401 117.455C32.3966 119.515 30.2171 119.515 28.8736 117.455L1.00766 74.7296C-0.335885 72.6697 -0.335885 69.3281 1.00766 67.2682Z" fill="#F6F6F6"/>
<path d="M321.992 74.7308L294.125 117.455C292.781 119.515 290.602 119.515 289.258 117.455L286.008 112.472C284.666 110.415 284.664 107.081 286.002 105.019L308.087 70.9999L286.002 36.9812C284.664 34.9193 284.666 31.5855 286.008 29.5285L289.258 24.5454C290.602 22.4849 292.781 22.4849 294.125 24.5454L321.992 67.2693C323.336 69.3296 323.336 72.6702 321.992 74.7308Z" fill="#F6F6F6"/>
</svg>
