<svg width="493" height="80" viewBox="0 0 493 80" fill="none" xmlns="http://www.w3.org/2000/svg">
<path d="M6.12158 44.3281L27.3779 52.9414V58.9707L2.21484 47.312V43.7744L6.12158 44.3281ZM27.3779 37.2529L6.15234 45.9893L2.21484 46.4199V42.8516L27.3779 31.2236V37.2529Z" fill="#F6F6F6"/>
<path d="M51.158 64V29.35H56.135V33.508H57.269L56.387 35.02C56.387 33.088 56.891 31.555 57.899 30.421C58.949 29.287 60.356 28.72 62.12 28.72C64.052 28.72 65.543 29.434 66.593 30.862C67.643 32.29 68.168 34.306 68.168 36.91L66.467 33.508H69.113L67.916 35.02C67.916 33.088 68.441 31.555 69.491 30.421C70.583 29.287 72.011 28.72 73.775 28.72C75.959 28.72 77.639 29.539 78.815 31.177C80.033 32.815 80.642 34.978 80.642 37.666V64H75.413V37.603C75.413 36.175 75.098 35.062 74.468 34.264C73.88 33.466 72.998 33.067 71.822 33.067C70.688 33.067 69.785 33.466 69.113 34.264C68.483 35.02 68.168 36.112 68.168 37.54V64H63.632V37.603C63.632 36.133 63.296 35.02 62.624 34.264C61.994 33.466 61.091 33.067 59.915 33.067C58.739 33.067 57.857 33.466 57.269 34.264C56.681 35.02 56.387 36.112 56.387 37.54V64H51.158ZM90.1304 64V58.834H102.415V34.516H91.7054V29.35H108.085V58.834H119.74V64H90.1304ZM104.62 23.113C103.234 23.113 102.142 22.756 101.344 22.042C100.546 21.328 100.147 20.362 100.147 19.144C100.147 17.884 100.546 16.897 101.344 16.183C102.142 15.427 103.234 15.049 104.62 15.049C106.006 15.049 107.098 15.427 107.896 16.183C108.694 16.897 109.093 17.884 109.093 19.144C109.093 20.362 108.694 21.328 107.896 22.042C107.098 22.756 106.006 23.113 104.62 23.113ZM141.451 64.504C138.679 64.504 136.285 63.979 134.269 62.929C132.253 61.879 130.678 60.367 129.544 58.393C128.452 56.377 127.906 54.004 127.906 51.274V42.076C127.906 39.304 128.452 36.931 129.544 34.957C130.678 32.983 132.253 31.471 134.269 30.421C136.285 29.371 138.679 28.846 141.451 28.846C144.223 28.846 146.617 29.371 148.633 30.421C150.649 31.471 152.203 32.983 153.295 34.957C154.429 36.931 154.996 39.283 154.996 42.013V51.274C154.996 54.004 154.429 56.377 153.295 58.393C152.203 60.367 150.649 61.879 148.633 62.929C146.617 63.979 144.223 64.504 141.451 64.504ZM141.451 59.464C143.929 59.464 145.861 58.771 147.247 57.385C148.633 55.999 149.326 53.962 149.326 51.274V42.076C149.326 39.388 148.633 37.351 147.247 35.965C145.861 34.579 143.929 33.886 141.451 33.886C139.015 33.886 137.083 34.579 135.655 35.965C134.269 37.351 133.576 39.388 133.576 42.076V51.274C133.576 53.962 134.269 55.999 135.655 57.385C137.083 58.771 139.015 59.464 141.451 59.464ZM183.951 64C181.935 64 180.171 63.601 178.659 62.803C177.147 62.005 175.971 60.871 175.131 59.401C174.291 57.931 173.871 56.209 173.871 54.235V23.176H162.216V18.01H179.541V54.235C179.541 55.663 179.94 56.797 180.738 57.637C181.536 58.435 182.607 58.834 183.951 58.834H194.976V64H183.951ZM221.727 64C219.711 64 217.947 63.601 216.435 62.803C214.923 62.005 213.747 60.871 212.907 59.401C212.067 57.931 211.647 56.209 211.647 54.235V23.176H199.992V18.01H217.317V54.235C217.317 55.663 217.716 56.797 218.514 57.637C219.312 58.435 220.383 58.834 221.727 58.834H232.752V64H221.727ZM254.777 64.504C252.005 64.504 249.611 63.979 247.595 62.929C245.579 61.879 244.004 60.367 242.87 58.393C241.778 56.377 241.232 54.004 241.232 51.274V42.076C241.232 39.304 241.778 36.931 242.87 34.957C244.004 32.983 245.579 31.471 247.595 30.421C249.611 29.371 252.005 28.846 254.777 28.846C257.549 28.846 259.943 29.371 261.959 30.421C263.975 31.471 265.529 32.983 266.621 34.957C267.755 36.931 268.322 39.283 268.322 42.013V51.274C268.322 54.004 267.755 56.377 266.621 58.393C265.529 60.367 263.975 61.879 261.959 62.929C259.943 63.979 257.549 64.504 254.777 64.504ZM254.777 59.464C257.255 59.464 259.187 58.771 260.573 57.385C261.959 55.999 262.652 53.962 262.652 51.274V42.076C262.652 39.388 261.959 37.351 260.573 35.965C259.187 34.579 257.255 33.886 254.777 33.886C252.341 33.886 250.409 34.579 248.981 35.965C247.595 37.351 246.902 39.388 246.902 42.076V51.274C246.902 53.962 247.595 55.999 248.981 57.385C250.409 58.771 252.341 59.464 254.777 59.464ZM292.552 64.63C290.956 64.63 289.675 64.168 288.709 63.244C287.785 62.32 287.323 61.081 287.323 59.527C287.323 57.889 287.785 56.587 288.709 55.621C289.675 54.655 290.956 54.172 292.552 54.172C294.148 54.172 295.408 54.655 296.332 55.621C297.298 56.587 297.781 57.889 297.781 59.527C297.781 61.081 297.298 62.32 296.332 63.244C295.408 64.168 294.148 64.63 292.552 64.63ZM328.312 64.63C324.868 64.63 322.075 63.475 319.933 61.165C317.833 58.855 316.783 55.726 316.783 51.778V41.635C316.783 37.645 317.833 34.495 319.933 32.185C322.033 29.875 324.826 28.72 328.312 28.72C331.168 28.72 333.457 29.497 335.179 31.051C336.901 32.605 337.762 34.684 337.762 37.288L336.628 35.965H337.888L337.762 28.09V18.01H343.432V64H337.762V57.385H336.628L337.762 56.062C337.762 58.708 336.901 60.808 335.179 62.362C333.457 63.874 331.168 64.63 328.312 64.63ZM330.202 59.716C332.554 59.716 334.402 58.981 335.746 57.511C337.09 56.041 337.762 54.004 337.762 51.4V41.95C337.762 39.346 337.09 37.309 335.746 35.839C334.402 34.369 332.554 33.634 330.202 33.634C327.808 33.634 325.918 34.348 324.532 35.776C323.146 37.204 322.453 39.262 322.453 41.95V51.4C322.453 54.088 323.146 56.146 324.532 57.574C325.918 59.002 327.808 59.716 330.202 59.716ZM368.103 64.63C365.373 64.63 362.979 64.084 360.921 62.992C358.905 61.9 357.33 60.367 356.196 58.393C355.104 56.377 354.558 54.046 354.558 51.4V41.95C354.558 39.262 355.104 36.931 356.196 34.957C357.33 32.983 358.905 31.45 360.921 30.358C362.979 29.266 365.373 28.72 368.103 28.72C370.833 28.72 373.206 29.266 375.222 30.358C377.28 31.45 378.855 32.983 379.947 34.957C381.081 36.931 381.648 39.262 381.648 41.95V48.061H360.102V51.4C360.102 54.13 360.795 56.23 362.181 57.7C363.567 59.128 365.541 59.842 368.103 59.842C370.287 59.842 372.051 59.464 373.395 58.708C374.739 57.91 375.558 56.734 375.852 55.18H381.522C381.144 58.078 379.716 60.388 377.238 62.11C374.802 63.79 371.757 64.63 368.103 64.63ZM376.104 44.281V41.95C376.104 39.22 375.411 37.12 374.025 35.65C372.681 34.18 370.707 33.445 368.103 33.445C365.541 33.445 363.567 34.18 362.181 35.65C360.795 37.12 360.102 39.22 360.102 41.95V43.777H376.545L376.104 44.281ZM402.036 64L390.444 29.35H396.24L403.926 52.66C404.388 54.046 404.808 55.39 405.186 56.692C405.564 57.952 405.837 58.939 406.005 59.653C406.215 58.939 406.509 57.952 406.887 56.692C407.265 55.39 407.664 54.046 408.084 52.66L415.581 29.35H421.314L409.722 64H402.036Z" fill="#F6F6F6"/>
<path d="M457.148 20.2109L438.476 68.8452H433.584L452.288 20.2109H457.148ZM485.049 45.5586L463.177 37.0376V31.1621L489.448 42.79V46.3892L485.049 45.5586ZM463.177 53.0645L485.11 44.3589L489.448 43.7129V47.2812L463.177 58.9399V53.0645Z" fill="#F6F6F6"/>
</svg>
